<svg aria-hidden="true" style="position: absolute; width: 0; height: 0; overflow: hidden;" version="1.1" xmlns="http://www.w3.org/2000/svg" xmlns:xlink="http://www.w3.org/1999/xlink">
<defs>
<symbol id="icon-arrow-down" viewBox="0 0 25 32">
<path fill="none" stroke="#fff" style="stroke: var(--color1, #fff)" stroke-linejoin="round" stroke-linecap="round" stroke-miterlimit="4" stroke-width="2.0992" d="M12.792 1.187v29.389M12.792 30.575l-11.196-9.643M12.792 30.575l11.196-9.643"></path>
</symbol>
<symbol id="icon-arrow-left" viewBox="0 0 42 32">
<path fill="none" stroke="#fff" style="stroke: var(--color1, #fff)" stroke-linejoin="round" stroke-linecap="round" stroke-miterlimit="4" stroke-width="2.13" d="M40.189 15.97h-38.421M1.769 15.97l12.607-14.2M1.769 15.97l12.607 14.2"></path>
</symbol>
<symbol id="icon-arrow-right" viewBox="0 0 42 32">
<path fill="none" stroke="#fff" style="stroke: var(--color1, #fff)" stroke-linejoin="round" stroke-linecap="round" stroke-miterlimit="4" stroke-width="2.13" d="M1.547 15.97h38.421M39.967 15.97l-12.607 14.2M39.967 15.97l-12.607-14.2"></path>
</symbol>
<symbol id="icon-facebook" viewBox="0 0 17 32">
<path  d="M13.17 5.459h2.868v-5.042c-0.495-0.069-2.197-0.223-4.178-0.223-4.135 0-6.968 2.626-6.968 7.451v4.441h-4.563v5.637h4.563v14.183h5.595v-14.182h4.379l0.695-5.637h-5.075v-3.883c0.001-1.629 0.436-2.744 2.685-2.744v0z"></path>
</symbol>
<symbol id="icon-instagram" viewBox="0 0 33 32">
<path  d="M10.039 0.182h13.495c5.146 0 9.318 4.028 9.318 8.997v13.030c0 4.969-4.172 8.997-9.318 8.997h-13.495c-5.146 0-9.318-4.028-9.318-8.997v-13.030c0-4.969 4.172-8.997 9.318-8.997zM9.717 3.284c-3.194 0-5.784 2.5-5.784 5.584v13.65c0 3.084 2.59 5.584 5.784 5.584h14.138c3.194 0 5.784-2.5 5.784-5.584v-13.65c0-3.084-2.589-5.584-5.784-5.584h-14.138zM25.221 5.611c1.109 0 2.008 0.868 2.008 1.939s-0.899 1.939-2.008 1.939c-1.109 0-2.008-0.868-2.008-1.939s0.899-1.939 2.008-1.939zM16.786 7.938c4.436 0 8.033 3.472 8.033 7.756s-3.597 7.756-8.033 7.756c-4.437 0-8.033-3.472-8.033-7.756s3.596-7.756 8.033-7.756zM16.786 11.040c-2.662 0-4.82 2.084-4.82 4.654s2.158 4.653 4.82 4.653 4.82-2.083 4.82-4.653c0-2.57-2.158-4.654-4.82-4.654z"></path>
</symbol>
<symbol id="icon-linkedin" viewBox="0 0 31 32">
<path  d="M6.856 30.92h-6.277v-20.18h6.277v20.18zM3.684 8.040c-1.957 0-3.577-1.687-3.577-3.712 0-1.957 1.62-3.577 3.577-3.577 2.025 0 3.645 1.62 3.645 3.577 0 2.025-1.62 3.712-3.645 3.712zM30.276 30.92h-6.209v-9.786c0-2.362-0.067-5.332-3.307-5.332s-3.712 2.497-3.712 5.129v9.989h-6.277v-20.18h6.007v2.767h0.067c0.877-1.552 2.902-3.24 5.939-3.24 6.344 0 7.559 4.184 7.559 9.584v11.069h-0.067z"></path>
</symbol>
<symbol id="icon-search" viewBox="0 0 34 32">
<path d="M31.901 29.274l-7.406-7.405c2.146-2.577 3.217-5.883 2.988-9.229s-1.738-6.476-4.215-8.737-5.73-3.481-9.084-3.405c-3.353 0.076-6.548 1.442-8.92 3.814s-3.738 5.566-3.814 8.92c-0.076 3.353 1.143 6.607 3.405 9.084s5.391 3.987 8.737 4.215c3.346 0.229 6.652-0.842 9.229-2.988l7.405 7.406c0.11 0.11 0.241 0.197 0.384 0.257s0.298 0.090 0.453 0.090c0.156 0 0.309-0.031 0.453-0.090s0.274-0.147 0.384-0.257c0.11-0.11 0.197-0.241 0.257-0.384s0.090-0.298 0.090-0.453c0-0.155-0.031-0.309-0.090-0.453s-0.147-0.274-0.257-0.384zM3.847 13.545c0-2.106 0.625-4.165 1.795-5.917s2.834-3.116 4.78-3.922c1.946-0.806 4.087-1.017 6.153-0.606s3.964 1.425 5.453 2.915 2.504 3.387 2.915 5.453c0.411 2.066 0.2 4.207-0.606 6.153s-2.171 3.609-3.922 4.78c-1.751 1.17-3.81 1.795-5.917 1.795-2.824-0.003-5.531-1.126-7.527-3.123s-3.12-4.704-3.123-7.527z"></path>
</symbol>
<symbol id="icon-triangle-play" viewBox="0 0 33 32">
<path fill="#fff" style="fill: var(--color1, #fff)" d="M0.075 31.198v-30.797l32.418 15.014-32.418 15.784z"></path>
</symbol>
<symbol id="icon-twitter" viewBox="0 0 40 32">
<path d="M39.232 4.931c-1.413 0.605-2.932 1.014-4.526 1.198 1.627-0.942 2.876-2.433 3.465-4.209-1.523 0.872-3.209 1.505-5.004 1.846-1.437-1.479-3.485-2.402-5.752-2.402-4.352 0-7.88 3.406-7.88 7.608 0 0.596 0.070 1.177 0.204 1.734-6.549-0.317-12.355-3.346-16.242-7.949-0.678 1.124-1.067 2.431-1.067 3.825 0 2.64 1.391 4.968 3.506 6.333-1.292-0.040-2.507-0.382-3.569-0.952-0.001 0.032-0.001 0.064-0.001 0.096 0 3.686 2.716 6.761 6.321 7.46-0.661 0.174-1.357 0.267-2.076 0.267-0.508 0-1.001-0.048-1.483-0.137 1.003 3.022 3.913 5.222 7.361 5.283-2.697 2.041-6.095 3.257-9.787 3.257-0.636 0-1.263-0.036-1.88-0.107 3.487 2.159 7.629 3.418 12.079 3.418 14.494 0 22.42-11.593 22.42-21.647 0-0.33-0.008-0.658-0.023-0.984 1.54-1.073 2.876-2.413 3.932-3.938z"></path>
</symbol>
</defs>
</svg>
