<svg aria-hidden="true" style="position: absolute; width: 0; height: 0; overflow: hidden;" version="1.1" xmlns="http://www.w3.org/2000/svg" xmlns:xlink="http://www.w3.org/1999/xlink">
<defs>
<symbol id="icon-magic" viewBox="0 0 35 32">
<path fill="#7c61f0" style="fill: var(--color1, #7c61f0)" d="M14.72 4.028l-2.159 0.795c-0.189 0.076-0.284 0.208-0.284 0.398s0.095 0.322 0.284 0.398l2.159 0.795 0.796 2.159c0.076 0.189 0.208 0.284 0.398 0.284s0.322-0.095 0.398-0.284l0.796-2.159 2.159-0.795c0.189-0.076 0.284-0.208 0.284-0.398s-0.095-0.322-0.284-0.398l-2.159-0.795-0.796-2.159c-0.076-0.189-0.208-0.284-0.398-0.284s-0.322 0.095-0.398 0.284l-0.796 2.159zM3.981 24.028c-0.53 0.568-0.795 1.212-0.795 1.932s0.265 1.364 0.795 1.932l1.989 1.989c0.53 0.53 1.174 0.795 1.932 0.795 0.72 0 1.364-0.265 1.932-0.795l21.648-21.648c0.53-0.568 0.795-1.212 0.795-1.932 0-0.758-0.265-1.402-0.796-1.932l-1.989-1.989c-0.53-0.53-1.174-0.795-1.932-0.795-0.72 0-1.364 0.265-1.932 0.795l-21.648 21.648zM28.924 6.301l-5.966 5.966-1.364-1.364 5.966-5.966 1.364 1.364zM1.822 8.233c-0.303 0.114-0.455 0.322-0.455 0.625s0.152 0.511 0.455 0.625l3.182 1.193 1.193 3.239c0.114 0.265 0.322 0.398 0.625 0.398s0.511-0.133 0.625-0.398l1.193-3.239 3.239-1.193c0.265-0.114 0.398-0.322 0.398-0.625s-0.133-0.511-0.398-0.625l-3.239-1.193-1.193-3.182c-0.114-0.303-0.322-0.455-0.625-0.455s-0.511 0.152-0.625 0.455l-1.193 3.182-3.182 1.193zM21.822 22.778c-0.303 0.114-0.455 0.322-0.455 0.625s0.152 0.511 0.455 0.625l3.182 1.193 1.193 3.239c0.114 0.265 0.322 0.398 0.625 0.398s0.511-0.133 0.625-0.398l1.193-3.239 3.239-1.193c0.265-0.114 0.398-0.322 0.398-0.625s-0.133-0.511-0.398-0.625l-3.239-1.193-1.193-3.182c-0.114-0.303-0.322-0.455-0.625-0.455s-0.511 0.152-0.625 0.455l-1.193 3.182-3.182 1.193z"></path>
</symbol>
<symbol id="icon-lead" viewBox="0 0 35 32">
<path fill="#7c61f0" style="fill: var(--color1, #7c61f0)" d="M10.458 1.643c-0.53 0-0.966 0.17-1.307 0.511s-0.511 0.776-0.511 1.307c0 0.53 0.17 0.966 0.511 1.307s0.777 0.511 1.307 0.511h2.898l-11.477 11.42c-0.341 0.379-0.511 0.814-0.511 1.307s0.17 0.928 0.511 1.307c0.379 0.341 0.814 0.511 1.307 0.511s0.928-0.17 1.307-0.511l11.42-11.477v2.898c0 0.53 0.17 0.966 0.511 1.307s0.776 0.511 1.307 0.511 0.966-0.17 1.307-0.511c0.341-0.341 0.511-0.777 0.511-1.307v-7.273c0-0.53-0.17-0.966-0.511-1.307s-0.776-0.511-1.307-0.511h-7.273zM34.095 6.189c-0.038-1.023-0.492-1.818-1.364-2.386-0.909-0.455-1.818-0.455-2.727 0-0.871 0.568-1.326 1.364-1.364 2.386 0.038 1.023 0.492 1.818 1.364 2.386 0.909 0.455 1.818 0.455 2.727 0 0.871-0.568 1.326-1.364 1.364-2.386zM26.822 13.462c-0.038-1.023-0.492-1.818-1.364-2.386-0.909-0.455-1.818-0.455-2.727 0-0.871 0.568-1.326 1.364-1.364 2.386 0.038 1.023 0.492 1.818 1.364 2.386 0.909 0.455 1.818 0.455 2.727 0 0.871-0.568 1.326-1.364 1.364-2.386zM24.095 23.462c1.023-0.038 1.818-0.492 2.386-1.364 0.455-0.909 0.455-1.818 0-2.727-0.568-0.871-1.364-1.326-2.386-1.364-1.023 0.038-1.818 0.492-2.386 1.364-0.455 0.909-0.455 1.818 0 2.727 0.568 0.871 1.364 1.326 2.386 1.364zM26.822 28.007c-0.038-1.023-0.492-1.818-1.364-2.386-0.909-0.455-1.818-0.455-2.727 0-0.871 0.568-1.326 1.364-1.364 2.386 0.038 1.023 0.492 1.818 1.364 2.386 0.909 0.455 1.818 0.455 2.727 0 0.871-0.568 1.326-1.364 1.364-2.386zM34.095 28.007c-0.038-1.023-0.492-1.818-1.364-2.386-0.909-0.455-1.818-0.455-2.727 0-0.871 0.568-1.326 1.364-1.364 2.386 0.038 1.023 0.492 1.818 1.364 2.386 0.909 0.455 1.818 0.455 2.727 0 0.871-0.568 1.326-1.364 1.364-2.386zM16.822 23.462c1.023-0.038 1.818-0.492 2.386-1.364 0.455-0.909 0.455-1.818 0-2.727-0.568-0.871-1.364-1.326-2.386-1.364-1.023 0.038-1.818 0.492-2.386 1.364-0.455 0.909-0.455 1.818 0 2.727 0.568 0.871 1.364 1.326 2.386 1.364zM19.549 28.007c-0.038-1.023-0.492-1.818-1.364-2.386-0.909-0.455-1.818-0.455-2.727 0-0.871 0.568-1.326 1.364-1.364 2.386 0.038 1.023 0.492 1.818 1.364 2.386 0.909 0.455 1.818 0.455 2.727 0 0.871-0.568 1.326-1.364 1.364-2.386zM9.549 30.734c1.023-0.038 1.818-0.492 2.386-1.364 0.455-0.909 0.455-1.818 0-2.727-0.568-0.871-1.364-1.326-2.386-1.364-1.023 0.038-1.818 0.492-2.386 1.364-0.455 0.909-0.455 1.818 0 2.727 0.568 0.871 1.364 1.326 2.386 1.364zM34.095 20.734c-0.038-1.023-0.492-1.818-1.364-2.386-0.909-0.455-1.818-0.455-2.727 0-0.871 0.568-1.326 1.364-1.364 2.386 0.038 1.023 0.492 1.818 1.364 2.386 0.909 0.455 1.818 0.455 2.727 0 0.871-0.568 1.326-1.364 1.364-2.386zM31.367 16.189c1.023-0.038 1.818-0.492 2.386-1.364 0.455-0.909 0.455-1.818 0-2.727-0.568-0.871-1.364-1.326-2.386-1.364-1.023 0.038-1.818 0.492-2.386 1.364-0.455 0.909-0.455 1.818 0 2.727 0.568 0.871 1.364 1.326 2.386 1.364z"></path>
</symbol>
<symbol id="icon-camera" viewBox="0 0 35 32">
<path fill="#7c61f0" style="fill: var(--color1, #7c61f0)" d="M8.64 5.105c-1.364 0.038-2.405 0.644-3.125 1.818-0.682 1.212-0.682 2.424 0 3.636 0.72 1.174 1.761 1.78 3.125 1.818 1.364-0.038 2.405-0.644 3.125-1.818 0.682-1.212 0.682-2.424 0-3.636-0.72-1.174-1.761-1.78-3.125-1.818zM21.367 16.015h-12.727c-2.045-0.038-3.769-0.739-5.17-2.102-1.364-1.402-2.064-3.125-2.102-5.17 0.038-2.045 0.739-3.769 2.102-5.17 1.402-1.364 3.125-2.064 5.17-2.102 1.402 0 2.652 0.341 3.75 1.023s1.97 1.591 2.614 2.727c0.644-1.136 1.515-2.045 2.614-2.727s2.349-1.023 3.75-1.023c2.046 0.038 3.769 0.739 5.17 2.102 1.364 1.402 2.064 3.125 2.102 5.17-0.038 2.045-0.739 3.769-2.102 5.17-1.402 1.364-3.125 2.064-5.17 2.102zM21.367 5.105c-1.364 0.038-2.405 0.644-3.125 1.818-0.682 1.212-0.682 2.424 0 3.636 0.72 1.174 1.761 1.78 3.125 1.818 1.364-0.038 2.405-0.644 3.125-1.818 0.682-1.212 0.682-2.424 0-3.636-0.72-1.174-1.761-1.78-3.125-1.818zM33.072 16.185c0.644 0.379 0.985 0.928 1.023 1.648v10.909c-0.038 0.72-0.379 1.269-1.023 1.648-0.644 0.303-1.269 0.246-1.875-0.17l-3.636-2.727-0.739-0.568v-7.273l0.739-0.568 3.636-2.727c0.606-0.417 1.231-0.473 1.875-0.17zM5.004 17.833h16.364c1.023 0.038 1.875 0.398 2.557 1.080s1.042 1.534 1.080 2.557v5.455c-0.038 1.023-0.398 1.875-1.080 2.557s-1.534 1.042-2.557 1.080h-12.727c-1.023-0.038-1.875-0.398-2.557-1.080s-1.042-1.534-1.080-2.557v-5.455h-1.818c-0.53 0-0.966-0.17-1.307-0.511s-0.511-0.777-0.511-1.307 0.17-0.966 0.511-1.307c0.341-0.341 0.777-0.511 1.307-0.511h1.818z"></path>
</symbol>
<symbol id="icon-event" viewBox="0 0 31 32">
<path fill="#7c61f0" style="fill: var(--color1, #7c61f0)" d="M9.372 1.52c0.531 0 0.966 0.171 1.307 0.512s0.512 0.777 0.512 1.307v1.819h7.276v-1.819c0-0.531 0.171-0.966 0.512-1.307s0.777-0.512 1.308-0.512c0.53 0 0.966 0.171 1.307 0.512s0.512 0.777 0.512 1.307v1.819h2.729c0.758 0.038 1.402 0.303 1.933 0.796 0.493 0.531 0.758 1.175 0.796 1.933v2.729h-25.467v-2.729c0.038-0.758 0.303-1.402 0.796-1.933 0.531-0.493 1.175-0.758 1.933-0.796h2.729v-1.819c0-0.531 0.171-0.966 0.512-1.307s0.777-0.512 1.307-0.512zM2.095 12.435h25.467v15.462c-0.038 0.758-0.303 1.402-0.796 1.933-0.531 0.493-1.175 0.758-1.933 0.796h-20.010c-0.758-0.038-1.402-0.303-1.933-0.796-0.493-0.53-0.758-1.175-0.796-1.933v-15.462zM15.341 15.789c-0.114-0.227-0.284-0.341-0.512-0.341s-0.398 0.114-0.512 0.341l-1.364 2.729-3.013 0.398c-0.227 0.076-0.379 0.208-0.455 0.398-0.076 0.227-0.038 0.436 0.114 0.625l2.217 2.103-0.512 3.013c-0.038 0.227 0.038 0.417 0.227 0.569s0.398 0.17 0.625 0.057l2.672-1.421 2.672 1.421c0.227 0.114 0.436 0.095 0.625-0.057s0.265-0.341 0.227-0.569l-0.512-3.013 2.217-2.103c0.152-0.19 0.19-0.398 0.114-0.625-0.076-0.19-0.227-0.322-0.455-0.398l-3.013-0.398-1.364-2.729z"></path>
</symbol>
<symbol id="icon-arrow-down" viewBox="0 0 25 32">
<path fill="none" stroke="#fff" style="stroke: var(--color2, #fff)" stroke-linejoin="round" stroke-linecap="round" stroke-miterlimit="4" stroke-width="2.0992" d="M12.792 1.187v29.389M12.792 30.575l-11.196-9.643M12.792 30.575l11.196-9.643"></path>
</symbol>
<symbol id="icon-arrow-left" viewBox="0 0 42 32">
<path fill="none" stroke="#fff" style="stroke: var(--color2, #fff)" stroke-linejoin="round" stroke-linecap="round" stroke-miterlimit="4" stroke-width="2.13" d="M40.189 15.97h-38.421M1.769 15.97l12.607-14.2M1.769 15.97l12.607 14.2"></path>
</symbol>
<symbol id="icon-arrow-right" viewBox="0 0 42 32">
<path fill="none" stroke="#fff" style="stroke: var(--color2, #fff)" stroke-linejoin="round" stroke-linecap="round" stroke-miterlimit="4" stroke-width="2.13" d="M1.547 15.97h38.421M39.967 15.97l-12.607 14.2M39.967 15.97l-12.607-14.2"></path>
</symbol>
<symbol id="icon-facebook" viewBox="0 0 17 32">
<path  d="M13.17 5.459h2.868v-5.042c-0.495-0.069-2.197-0.223-4.178-0.223-4.135 0-6.968 2.626-6.968 7.451v4.441h-4.563v5.637h4.563v14.183h5.595v-14.182h4.379l0.695-5.637h-5.075v-3.883c0.001-1.629 0.436-2.744 2.685-2.744v0z"></path>
</symbol>
<symbol id="icon-instagram" viewBox="0 0 33 32">
<path  d="M10.039 0.182h13.495c5.146 0 9.318 4.028 9.318 8.997v13.030c0 4.969-4.172 8.997-9.318 8.997h-13.495c-5.146 0-9.318-4.028-9.318-8.997v-13.030c0-4.969 4.172-8.997 9.318-8.997zM9.717 3.284c-3.194 0-5.784 2.5-5.784 5.584v13.65c0 3.084 2.59 5.584 5.784 5.584h14.138c3.194 0 5.784-2.5 5.784-5.584v-13.65c0-3.084-2.589-5.584-5.784-5.584h-14.138zM25.221 5.611c1.109 0 2.008 0.868 2.008 1.939s-0.899 1.939-2.008 1.939c-1.109 0-2.008-0.868-2.008-1.939s0.899-1.939 2.008-1.939zM16.786 7.938c4.436 0 8.033 3.472 8.033 7.756s-3.597 7.756-8.033 7.756c-4.437 0-8.033-3.472-8.033-7.756s3.596-7.756 8.033-7.756zM16.786 11.040c-2.662 0-4.82 2.084-4.82 4.654s2.158 4.653 4.82 4.653 4.82-2.083 4.82-4.653c0-2.57-2.158-4.654-4.82-4.654z"></path>
</symbol>
<symbol id="icon-linkedin" viewBox="0 0 31 32">
<path  d="M6.856 30.92h-6.277v-20.18h6.277v20.18zM3.684 8.040c-1.957 0-3.577-1.687-3.577-3.712 0-1.957 1.62-3.577 3.577-3.577 2.025 0 3.645 1.62 3.645 3.577 0 2.025-1.62 3.712-3.645 3.712zM30.276 30.92h-6.209v-9.786c0-2.362-0.067-5.332-3.307-5.332s-3.712 2.497-3.712 5.129v9.989h-6.277v-20.18h6.007v2.767h0.067c0.877-1.552 2.902-3.24 5.939-3.24 6.344 0 7.559 4.184 7.559 9.584v11.069h-0.067z"></path>
</symbol>
<symbol id="icon-search" viewBox="0 0 34 32">
<path d="M31.901 29.274l-7.406-7.405c2.146-2.577 3.217-5.883 2.988-9.229s-1.738-6.476-4.215-8.737-5.73-3.481-9.084-3.405c-3.353 0.076-6.548 1.442-8.92 3.814s-3.738 5.566-3.814 8.92c-0.076 3.353 1.143 6.607 3.405 9.084s5.391 3.987 8.737 4.215c3.346 0.229 6.652-0.842 9.229-2.988l7.405 7.406c0.11 0.11 0.241 0.197 0.384 0.257s0.298 0.090 0.453 0.090c0.156 0 0.309-0.031 0.453-0.090s0.274-0.147 0.384-0.257c0.11-0.11 0.197-0.241 0.257-0.384s0.090-0.298 0.090-0.453c0-0.155-0.031-0.309-0.090-0.453s-0.147-0.274-0.257-0.384zM3.847 13.545c0-2.106 0.625-4.165 1.795-5.917s2.834-3.116 4.78-3.922c1.946-0.806 4.087-1.017 6.153-0.606s3.964 1.425 5.453 2.915 2.504 3.387 2.915 5.453c0.411 2.066 0.2 4.207-0.606 6.153s-2.171 3.609-3.922 4.78c-1.751 1.17-3.81 1.795-5.917 1.795-2.824-0.003-5.531-1.126-7.527-3.123s-3.12-4.704-3.123-7.527z"></path>
</symbol>
<symbol id="icon-triangle-play" viewBox="0 0 33 32">
<path fill="#fff" style="fill: var(--color2, #fff)" d="M0.075 31.198v-30.797l32.418 15.014-32.418 15.784z"></path>
</symbol>
<symbol id="icon-twitter" viewBox="0 0 40 32">
<path  d="M39.232 4.931c-1.413 0.605-2.932 1.014-4.526 1.198 1.627-0.942 2.876-2.433 3.465-4.209-1.523 0.872-3.209 1.505-5.004 1.846-1.437-1.479-3.485-2.402-5.752-2.402-4.352 0-7.88 3.406-7.88 7.608 0 0.596 0.070 1.177 0.204 1.734-6.549-0.317-12.355-3.346-16.242-7.949-0.678 1.124-1.067 2.431-1.067 3.825 0 2.64 1.391 4.968 3.506 6.333-1.292-0.040-2.507-0.382-3.569-0.952-0.001 0.032-0.001 0.064-0.001 0.096 0 3.686 2.716 6.761 6.321 7.46-0.661 0.174-1.357 0.267-2.076 0.267-0.508 0-1.001-0.048-1.483-0.137 1.003 3.022 3.913 5.222 7.361 5.283-2.697 2.041-6.095 3.257-9.787 3.257-0.636 0-1.263-0.036-1.88-0.107 3.487 2.159 7.629 3.418 12.079 3.418 14.494 0 22.42-11.593 22.42-21.647 0-0.33-0.008-0.658-0.023-0.984 1.54-1.073 2.876-2.413 3.932-3.938z"></path>
</symbol>
</defs>
</svg>
